<svg width="17" height="25" viewBox="0 0 17 25" fill="none" xmlns="http://www.w3.org/2000/svg">
<g clip-path="url(#clip0_109_255)">
<path d="M15.2136 5.8154L15.1968 5.80531L15.1577 5.79321C15.1734 5.80668 15.1931 5.8145 15.2136 5.8154Z" fill="#BFB1A9"/>
<path d="M15.4591 7.60144L15.4407 7.6066L15.4591 7.60144Z" fill="#BFB1A9"/>
<path d="M15.2204 5.81261C15.2182 5.81232 15.216 5.8118 15.2138 5.81104C15.2137 5.8125 15.2137 5.81398 15.2138 5.81545C15.2162 5.81512 15.2185 5.81415 15.2204 5.81261Z" fill="#BFB1A9"/>
<path d="M15.2137 5.81705H15.2185V5.81409L15.2137 5.81705Z" fill="#BFB1A9"/>
<path d="M15.4444 7.59825L15.4729 7.58178L15.4835 7.57572L15.4931 7.56531C15.475 7.5732 15.4586 7.58438 15.4444 7.59825Z" fill="#BFB1A9"/>
<path d="M15.2629 5.85447L15.2351 5.82756L15.2162 5.81714C15.2264 5.83532 15.2431 5.84873 15.2629 5.85447Z" fill="#BFB1A9"/>
<path d="M8.26959 23.1857C8.24738 23.1954 8.22792 23.2107 8.213 23.23L8.23054 23.2187C8.24246 23.2076 8.25932 23.1945 8.26959 23.1857Z" fill="#BFB1A9"/>
<path d="M12.3305 22.3735C12.3305 22.3481 12.3183 22.3528 12.3212 22.4435C12.3212 22.4363 12.3242 22.4288 12.3256 22.4218C12.3272 22.4056 12.3285 22.3898 12.3305 22.3735Z" fill="#BFB1A9"/>
<path d="M11.9093 23.1857C11.8871 23.1954 11.8677 23.2107 11.8527 23.23L11.8703 23.2187C11.8822 23.2076 11.8991 23.1945 11.9093 23.1857Z" fill="#BFB1A9"/>
<path d="M5.40969 23.3788C5.39282 23.364 5.37219 23.3542 5.35013 23.3505C5.36799 23.3593 5.38586 23.3681 5.39776 23.3747L5.40969 23.3788Z" fill="#BFB1A9"/>
<path d="M4.76618 22.7524C4.76354 22.726 4.75554 22.7004 4.74268 22.6771C4.75179 22.7012 4.75941 22.726 4.7655 22.751L4.76618 22.7524Z" fill="#BFB1A9"/>
<path d="M9.08891 11.5488C8.20543 11.9333 7.20282 12.3691 5.90339 12.3691C5.35982 12.368 4.81885 12.2922 4.29526 12.1438L5.19397 21.5223C5.22578 21.9142 5.40147 22.2798 5.68614 22.5462C5.97081 22.8126 6.34366 22.9604 6.73062 22.9604C6.73062 22.9604 8.00489 23.0276 8.4301 23.0276C8.88772 23.0276 10.2599 22.9604 10.2599 22.9604C10.6469 22.9604 11.0196 22.8124 11.3042 22.546C11.5888 22.2796 11.7645 21.9142 11.7963 21.5223L12.7588 11.1587C12.3287 11.0094 11.8945 10.9102 11.4052 10.9102C10.5587 10.9098 9.87676 11.2061 9.08891 11.5488Z" fill="#BFB1A9"/>
<path d="M1.51324 7.54749L1.5281 7.56138L1.53778 7.5672C1.53032 7.55979 1.5221 7.55318 1.51324 7.54749Z" fill="#BFB1A9"/>
<path d="M16.9148 6.68196L16.7794 5.98812C16.658 5.36558 16.3824 4.77735 15.7537 4.55235C15.5521 4.48036 15.3235 4.44943 15.169 4.30043C15.0144 4.15145 14.9688 3.92006 14.933 3.70547C14.8669 3.31163 14.8047 2.91746 14.7368 2.5243C14.6783 2.18628 14.6319 1.80657 14.4794 1.49648C14.2809 1.08011 13.8689 0.836609 13.4592 0.675508C13.2493 0.595864 13.0351 0.528489 12.8176 0.473714C11.7942 0.199271 10.7181 0.0983732 9.66522 0.0408614C8.40145 -0.030019 7.13429 -0.00866367 5.8735 0.104763C4.9351 0.191535 3.94671 0.29647 3.05496 0.626405C2.72904 0.747146 2.39317 0.892101 2.14535 1.14805C1.84125 1.46251 1.74198 1.94884 1.964 2.34099C2.12185 2.61947 2.38921 2.81622 2.67279 2.94638C3.04216 3.11409 3.42791 3.24171 3.82364 3.32711C4.9255 3.57465 6.06675 3.67183 7.19245 3.71321C8.44014 3.76439 9.68981 3.72291 10.9315 3.58909C11.2386 3.55479 11.5451 3.51364 11.8511 3.46568C12.2114 3.4095 12.4427 2.93057 12.3365 2.59693C12.2094 2.19806 11.868 2.04335 11.4818 2.10356C11.4249 2.11263 11.3683 2.12103 11.3114 2.12944L11.2704 2.1355C11.1396 2.15233 11.0088 2.168 10.8779 2.18258C10.6077 2.21218 10.3368 2.2364 10.0653 2.25524C9.45708 2.29828 8.84725 2.31812 8.23775 2.31914C7.63883 2.31914 7.03958 2.30197 6.44198 2.26196C6.16933 2.2438 5.89733 2.2207 5.626 2.19267C5.50258 2.17955 5.37948 2.16577 5.25641 2.15029L5.13925 2.13516L5.11379 2.13147L4.99235 2.11364C4.74417 2.07563 4.496 2.03192 4.25048 1.9791C4.22571 1.97351 4.20354 1.95952 4.18766 1.93939C4.17177 1.91927 4.16312 1.89425 4.16312 1.86846C4.16312 1.84266 4.17177 1.81764 4.18766 1.79752C4.20354 1.7774 4.22571 1.76339 4.25048 1.7578H4.25512C4.46789 1.71173 4.68229 1.67238 4.89737 1.63807C4.96908 1.62664 5.04098 1.61543 5.11312 1.60444H5.1151C5.24977 1.59536 5.38512 1.57081 5.51912 1.55466C6.68508 1.4314 7.85796 1.38937 9.02958 1.42888C9.59837 1.4457 10.1669 1.47966 10.733 1.53818C10.8548 1.55097 10.9759 1.56442 11.097 1.57955C11.1433 1.58527 11.19 1.592 11.2366 1.59772L11.3306 1.6115C11.6046 1.65298 11.8771 1.70332 12.1482 1.76252C12.5499 1.85131 13.0658 1.88023 13.2445 2.32754C13.3014 2.46947 13.3272 2.62721 13.3586 2.77619L13.3987 2.96622C13.3997 2.96962 13.4005 2.97312 13.401 2.97664C13.4956 3.42508 13.5904 3.87351 13.6852 4.32195C13.6922 4.35508 13.6924 4.38931 13.6857 4.4225C13.6791 4.45571 13.6658 4.48714 13.6467 4.51489C13.6275 4.54263 13.603 4.56607 13.5746 4.58374C13.5461 4.60141 13.5144 4.61292 13.4814 4.61759H13.4788L13.4209 4.62566L13.3636 4.63339C13.1823 4.65739 13.0007 4.67981 12.819 4.70066C12.4609 4.74214 12.1024 4.77801 11.7432 4.80829C11.0296 4.86859 10.3145 4.90817 9.59804 4.92701C9.23297 4.93686 8.86798 4.94148 8.50312 4.94079C7.05083 4.93964 5.59979 4.85383 4.15718 4.68384C4.00098 4.66501 3.84481 4.64482 3.68862 4.62432C3.80973 4.64013 3.6006 4.6122 3.55825 4.60616C3.45898 4.59203 3.35971 4.57735 3.26044 4.5621C2.92723 4.5113 2.59602 4.44875 2.26346 4.39392C1.86143 4.32666 1.47693 4.3603 1.11328 4.5621C0.814779 4.72813 0.573183 4.98272 0.420723 5.29193C0.263879 5.62152 0.217223 5.98038 0.147074 6.33454C0.0769248 6.68868 -0.0322702 7.06974 0.00909135 7.43331C0.0981016 8.21796 0.637789 8.85563 1.41406 8.99824C2.14435 9.13276 2.8786 9.24173 3.61483 9.33456C6.50695 9.69459 9.42874 9.73765 12.3299 9.46304C12.5662 9.44062 12.8021 9.41618 13.0377 9.38972C13.1113 9.38151 13.1857 9.39011 13.2556 9.41493C13.3255 9.43976 13.389 9.48016 13.4416 9.53317C13.4941 9.58618 13.5343 9.65047 13.5592 9.72131C13.5842 9.79216 13.5932 9.86779 13.5856 9.94263L13.5122 10.6684C13.3642 12.135 13.2161 13.6015 13.0681 15.0679C12.9137 16.6078 12.7583 18.1477 12.6019 19.6873C12.5578 20.121 12.5137 20.5545 12.4695 20.9879C12.4272 21.4148 12.4212 21.855 12.3415 22.2768C12.2157 22.94 11.774 23.3473 11.1294 23.4963C10.5389 23.6329 9.93562 23.7047 9.33002 23.7101C8.65864 23.7138 7.9876 23.6835 7.31621 23.6873C6.59948 23.6914 5.72164 23.6241 5.16839 23.0819C4.68229 22.6057 4.61512 21.86 4.54894 21.2152C4.46071 20.3616 4.37325 19.5082 4.28654 18.6548L3.80014 13.9096L3.48546 10.8393C3.48016 10.7885 3.47487 10.7384 3.46991 10.6873C3.43217 10.321 3.17706 9.96249 2.77502 9.98098C2.4309 9.99644 2.03979 10.2938 2.08015 10.6873L2.31342 12.9635L2.79587 17.6721C2.93331 19.0095 3.07041 20.3471 3.20717 21.6851C3.23366 21.9414 3.25846 22.1984 3.28625 22.4547C3.43748 23.8552 4.48971 24.6099 5.79277 24.8223C6.55383 24.9468 7.33341 24.9724 8.10571 24.9851C9.09575 25.0014 10.0957 25.0401 11.0695 24.8577C12.5126 24.5885 13.5952 23.6093 13.7498 22.0901C13.7939 21.6515 13.838 21.2129 13.8821 20.774C14.0288 19.3229 14.1753 17.8716 14.3215 16.4203L14.8 11.6781L15.0194 9.50475C15.0303 9.39697 15.0751 9.29564 15.1471 9.21575C15.2191 9.13587 15.3145 9.08165 15.4191 9.06112C15.8317 8.9794 16.2262 8.83982 16.5197 8.52064C16.9869 8.01247 17.0799 7.3499 16.9148 6.68196ZM1.39289 7.1508C1.39917 7.14777 1.38759 7.20258 1.38263 7.22815C1.38164 7.18946 1.38362 7.15516 1.39289 7.1508ZM1.43293 7.4656C1.43624 7.46323 1.44616 7.4767 1.45642 7.49285C1.44087 7.47803 1.43094 7.46695 1.43259 7.4656H1.43293ZM1.4723 7.51839C1.48653 7.54294 1.49414 7.55842 1.4723 7.51839V7.51839ZM1.55139 7.58364H1.55337C1.55337 7.58601 1.55701 7.58835 1.55833 7.59072C1.55614 7.58812 1.5537 7.58575 1.55105 7.58364H1.55139ZM15.3999 7.4861C15.2517 7.62938 15.0283 7.69597 14.8076 7.72928C12.3325 8.1026 9.82141 8.29162 7.31918 8.20821C5.52839 8.14599 3.75646 7.94384 1.98354 7.68925C1.80981 7.66437 1.62153 7.63208 1.50208 7.50192C1.27707 7.25639 1.38759 6.762 1.44616 6.46536C1.49977 6.19361 1.60234 5.83139 1.92033 5.79271C2.41667 5.73352 2.99308 5.9464 3.48414 6.02209C4.07533 6.11378 4.66873 6.18722 5.26433 6.24238C7.80625 6.47781 10.3909 6.44115 12.9215 6.09676C13.3828 6.03374 13.8424 5.96054 14.3004 5.87713C14.7084 5.8028 15.1607 5.66323 15.4072 6.09271C15.5763 6.38532 15.5988 6.7768 15.5727 7.10741C15.5646 7.25145 15.5027 7.38692 15.3996 7.4861H15.3999Z" fill="#BFB1A9"/>
</g>
<defs>
<clipPath id="clip0_109_255">
<rect width="17" height="25" fill="white"/>
</clipPath>
</defs>
</svg>
