<svg width="25" height="25" viewBox="0 0 25 25" fill="none" xmlns="http://www.w3.org/2000/svg">
<path d="M8.90077 23.575C8.76718 23.575 8.63358 23.5524 8.50546 23.5055C3.66796 21.7508 0.568738 17.118 0.792956 11.9766C0.802331 11.7618 0.974206 11.5977 1.19999 11.6032C1.41561 11.6125 1.5828 11.7953 1.57343 12.0102C1.36405 16.8086 4.25702 21.1328 8.77186 22.7696C8.88983 22.8133 9.0203 22.7953 9.12577 22.7203C9.23436 22.6438 9.29608 22.525 9.2953 22.3946L9.28905 21.1657C6.22108 21.6039 5.49452 19.3102 5.48671 19.286C5.05546 18.1883 4.43827 17.8641 4.43202 17.861C4.16483 17.6821 3.65389 17.3328 3.79921 16.875C3.92968 16.4625 4.46483 16.4352 4.68671 16.4282C6.04296 16.5235 6.73046 17.7508 6.75858 17.8032C7.50546 19.0868 8.64452 18.9328 9.36405 18.6578C9.43436 18.3047 9.55077 17.9836 9.70702 17.7078C7.46327 17.3282 4.88202 16.1664 4.88202 11.7953C4.88202 10.5993 5.25624 9.54535 5.99452 8.65785C5.83202 8.13128 5.62889 7.00785 6.18514 5.59144C6.22811 5.48207 6.31796 5.39847 6.42967 5.36253C6.54217 5.32582 7.58046 5.05472 9.73436 6.4766C10.6086 6.24925 11.5383 6.13128 12.4992 6.1266C13.4633 6.13128 14.3922 6.24925 15.2672 6.4766C17.4203 5.05472 18.4547 5.32582 18.5687 5.36253C18.6805 5.39847 18.7695 5.48207 18.8125 5.59066C19.3711 7.00707 19.1687 8.1305 19.0055 8.65863C19.743 9.54379 20.1164 10.5977 20.1164 11.7961C20.1164 16.1672 17.532 17.3258 15.2844 17.7016C15.5609 18.1883 15.7133 18.8157 15.7133 19.5141C15.7133 20.3055 15.7094 21.4399 15.7055 22.3985C15.7055 22.5282 15.7656 22.6446 15.8726 22.7203C15.9797 22.7953 16.1117 22.8133 16.2344 22.7696C20.543 21.2039 23.4375 17.0766 23.4375 12.5C23.4375 9.48207 22.2344 6.67191 20.0508 4.58675C17.868 2.50316 15.0023 1.43285 11.9758 1.57503C11.7609 1.59144 11.5781 1.418 11.5672 1.20316C11.557 0.987535 11.7234 0.804722 11.9391 0.794566C15.1828 0.646128 18.2516 1.78988 20.5898 4.02191C22.9305 6.2555 24.2187 9.26644 24.2187 12.5C24.2187 17.4039 21.1172 21.8258 16.5016 23.5032C16.1398 23.6336 15.7375 23.5805 15.4234 23.3586C15.1101 23.1375 14.9234 22.7774 14.925 22.3953C14.9289 21.4375 14.9328 20.3047 14.9328 19.5141C14.9328 18.3743 14.4898 17.868 14.2992 17.7039C14.182 17.6024 14.1351 17.4407 14.1812 17.293C14.2273 17.1446 14.357 17.0375 14.5109 17.0203C16.8969 16.7547 19.3359 15.9258 19.3359 11.7969C19.3359 10.7188 18.9781 9.77972 18.2734 9.00863C18.1719 8.89691 18.143 8.73753 18.2 8.59769C18.3086 8.33207 18.6094 7.39691 18.1672 6.09925C17.8367 6.10863 16.993 6.24691 15.5578 7.22425C15.4625 7.2891 15.3437 7.30941 15.2328 7.27738C14.3859 7.04144 13.4414 6.9141 12.4992 6.90863C11.5476 6.91332 10.6281 7.03753 9.76952 7.27738C9.65936 7.31019 9.54061 7.2891 9.44452 7.22425C8.01483 6.2516 7.17108 6.10941 6.83046 6.10082C6.39061 7.39847 6.69218 8.33128 6.79999 8.59769C6.85624 8.73753 6.82811 8.89691 6.72655 9.00785C6.0203 9.78207 5.66249 10.7203 5.66249 11.7969C5.66249 15.9235 8.09608 16.7578 10.4766 17.0289C10.6297 17.0461 10.7586 17.1524 10.8047 17.3C10.8508 17.4469 10.8055 17.6086 10.6898 17.7102C10.5148 17.8641 10.2047 18.2352 10.0992 18.9914C10.0812 19.1243 9.9953 19.2383 9.87264 19.293C9.28671 19.5571 7.28202 20.2594 6.07733 18.1891C6.06874 18.1743 5.66718 17.4696 4.94921 17.2625C5.20389 17.4328 5.79061 17.9282 6.22343 19.0321C6.25702 19.136 6.85468 20.9141 9.59296 20.318C9.70858 20.2938 9.82811 20.3203 9.9203 20.3946C10.0125 20.468 10.0664 20.5797 10.0672 20.6969L10.0758 22.3922C10.0773 22.7758 9.89061 23.1383 9.57499 23.3602C9.37499 23.5016 9.13905 23.575 8.90077 23.575Z" fill="#BFB1A9"/>
<path d="M12.2945 24.2188C5.83906 24.2188 0.78125 19.0711 0.78125 12.5C0.78125 9.66484 1.74844 6.94453 3.50391 4.84063C3.64141 4.675 3.88906 4.65234 4.05391 4.79141C4.21953 4.92969 4.24219 5.17578 4.10391 5.34141C2.46484 7.30469 1.5625 9.84688 1.5625 12.5C1.5625 18.6336 6.27656 23.4375 12.2945 23.4375C18.4391 23.4375 23.4375 18.5312 23.4375 12.5C23.4375 6.46875 18.4391 1.5625 12.2945 1.5625C10.3875 1.5625 8.53516 2.04688 6.93672 2.9625C6.75078 3.06797 6.51094 3.00391 6.40391 2.81719C6.29687 2.62969 6.36172 2.39141 6.54844 2.28359C8.26484 1.30078 10.2523 0.78125 12.2945 0.78125C18.8695 0.78125 24.2188 6.03828 24.2188 12.5C24.2188 18.9617 18.8695 24.2188 12.2945 24.2188Z" fill="#BFB1A9"/>
<path d="M5.89297 3.55627C5.89297 3.77112 5.71719 3.9469 5.50234 3.9469C5.2875 3.9469 5.11172 3.77112 5.11172 3.55627C5.11172 3.34143 5.2875 3.16565 5.50234 3.16565C5.71719 3.16565 5.89297 3.34065 5.89297 3.55627Z" fill="#BFB1A9"/>
</svg>
