<svg width="25" height="25" viewBox="0 0 25 25" fill="none" xmlns="http://www.w3.org/2000/svg">
<path d="M8.90071 23.575C8.76712 23.575 8.63353 23.5524 8.5054 23.5055C3.6679 21.7508 0.568682 17.118 0.792901 11.9766C0.802276 11.7618 0.974151 11.5977 1.19993 11.6032C1.41556 11.6125 1.58274 11.7953 1.57337 12.0102C1.36399 16.8086 4.25696 21.1328 8.77181 22.7696C8.88978 22.8133 9.02024 22.7953 9.12571 22.7203C9.23431 22.6438 9.29603 22.525 9.29525 22.3946L9.289 21.1657C6.22103 21.6039 5.49446 19.3102 5.48665 19.286C5.0554 18.1883 4.43821 17.8641 4.43196 17.861C4.16478 17.6821 3.65384 17.3328 3.79915 16.875C3.92962 16.4625 4.46478 16.4352 4.68665 16.4282C6.0429 16.5235 6.7304 17.7508 6.75853 17.8032C7.5054 19.0868 8.64446 18.9328 9.364 18.6578C9.43431 18.3047 9.55071 17.9836 9.70696 17.7078C7.46321 17.3282 4.88196 16.1664 4.88196 11.7953C4.88196 10.5993 5.25618 9.54535 5.99446 8.65785C5.83196 8.13128 5.62884 7.00785 6.18509 5.59144C6.22806 5.48207 6.3179 5.39847 6.42962 5.36253C6.54212 5.32582 7.5804 5.05472 9.73431 6.4766C10.6085 6.24925 11.5382 6.13128 12.4992 6.1266C13.4632 6.13128 14.3921 6.24925 15.2671 6.4766C17.4202 5.05472 18.4546 5.32582 18.5687 5.36253C18.6804 5.39847 18.7695 5.48207 18.8124 5.59066C19.371 7.00707 19.1687 8.1305 19.0054 8.65863C19.7429 9.54379 20.1163 10.5977 20.1163 11.7961C20.1163 16.1672 17.532 17.3258 15.2843 17.7016C15.5609 18.1883 15.7132 18.8157 15.7132 19.5141C15.7132 20.3055 15.7093 21.4399 15.7054 22.3985C15.7054 22.5282 15.7656 22.6446 15.8726 22.7203C15.9796 22.7953 16.1117 22.8133 16.2343 22.7696C20.5429 21.2039 23.4374 17.0766 23.4374 12.5C23.4374 9.48207 22.2343 6.67191 20.0507 4.58675C17.8679 2.50316 15.0023 1.43285 11.9757 1.57503C11.7609 1.59144 11.5781 1.418 11.5671 1.20316C11.557 0.987535 11.7234 0.804722 11.939 0.794566C15.1827 0.646128 18.2515 1.78988 20.5898 4.02191C22.9304 6.2555 24.2187 9.26644 24.2187 12.5C24.2187 17.4039 21.1171 21.8258 16.5015 23.5032C16.1398 23.6336 15.7374 23.5805 15.4234 23.3586C15.1101 23.1375 14.9234 22.7774 14.9249 22.3953C14.9288 21.4375 14.9327 20.3047 14.9327 19.5141C14.9327 18.3743 14.4898 17.868 14.2992 17.7039C14.182 17.6024 14.1351 17.4407 14.1812 17.293C14.2273 17.1446 14.357 17.0375 14.5109 17.0203C16.8968 16.7547 19.3359 15.9258 19.3359 11.7969C19.3359 10.7188 18.9781 9.77972 18.2734 9.00863C18.1718 8.89691 18.1429 8.73753 18.1999 8.59769C18.3085 8.33207 18.6093 7.39691 18.1671 6.09925C17.8367 6.10863 16.9929 6.24691 15.5577 7.22425C15.4624 7.2891 15.3437 7.30941 15.2327 7.27738C14.3859 7.04144 13.4413 6.9141 12.4992 6.90863C11.5476 6.91332 10.6281 7.03753 9.76946 7.27738C9.65931 7.31019 9.54056 7.2891 9.44446 7.22425C8.01478 6.2516 7.17103 6.10941 6.8304 6.10082C6.39056 7.39847 6.69212 8.33128 6.79993 8.59769C6.85618 8.73753 6.82806 8.89691 6.72649 9.00785C6.02024 9.78207 5.66243 10.7203 5.66243 11.7969C5.66243 15.9235 8.09603 16.7578 10.4765 17.0289C10.6296 17.0461 10.7585 17.1524 10.8046 17.3C10.8507 17.4469 10.8054 17.6086 10.6898 17.7102C10.5148 17.8641 10.2046 18.2352 10.0992 18.9914C10.0812 19.1243 9.99524 19.2383 9.87259 19.293C9.28665 19.5571 7.28196 20.2594 6.07728 18.1891C6.06868 18.1743 5.66712 17.4696 4.94915 17.2625C5.20384 17.4328 5.79056 17.9282 6.22337 19.0321C6.25696 19.136 6.85462 20.9141 9.5929 20.318C9.70853 20.2938 9.82806 20.3203 9.92025 20.3946C10.0124 20.468 10.0663 20.5797 10.0671 20.6969L10.0757 22.3922C10.0773 22.7758 9.89056 23.1383 9.57493 23.3602C9.37493 23.5016 9.139 23.575 8.90071 23.575Z" fill="#947D70"/>
<path d="M12.2945 24.2188C5.83906 24.2188 0.78125 19.0711 0.78125 12.5C0.78125 9.66484 1.74844 6.94453 3.50391 4.84063C3.64141 4.675 3.88906 4.65234 4.05391 4.79141C4.21953 4.92969 4.24219 5.17578 4.10391 5.34141C2.46484 7.30469 1.5625 9.84688 1.5625 12.5C1.5625 18.6336 6.27656 23.4375 12.2945 23.4375C18.4391 23.4375 23.4375 18.5312 23.4375 12.5C23.4375 6.46875 18.4391 1.5625 12.2945 1.5625C10.3875 1.5625 8.53516 2.04688 6.93672 2.9625C6.75078 3.06797 6.51094 3.00391 6.40391 2.81719C6.29687 2.62969 6.36172 2.39141 6.54844 2.28359C8.26484 1.30078 10.2523 0.78125 12.2945 0.78125C18.8695 0.78125 24.2188 6.03828 24.2188 12.5C24.2188 18.9617 18.8695 24.2188 12.2945 24.2188Z" fill="#947D70"/>
<path d="M5.89294 3.55627C5.89294 3.77112 5.71716 3.9469 5.50232 3.9469C5.28748 3.9469 5.11169 3.77112 5.11169 3.55627C5.11169 3.34143 5.28748 3.16565 5.50232 3.16565C5.71716 3.16565 5.89294 3.34065 5.89294 3.55627Z" fill="#947D70"/>
</svg>
