<svg width="25" height="25" viewBox="0 0 25 25" fill="none" xmlns="http://www.w3.org/2000/svg">
<path d="M17.9688 23.4375H7.03125C4.01562 23.4375 1.5625 20.9844 1.5625 17.9688V7.03125C1.5625 4.01562 4.01562 1.5625 7.03125 1.5625H17.9688C20.9844 1.5625 23.4375 4.01562 23.4375 7.03125V17.9688C23.4375 20.9844 20.9844 23.4375 17.9688 23.4375ZM7.03125 2.34375C4.44609 2.34375 2.34375 4.44609 2.34375 7.03125V17.9688C2.34375 20.5539 4.44609 22.6562 7.03125 22.6562H17.9688C20.5539 22.6562 22.6562 20.5539 22.6562 17.9688V7.03125C22.6562 4.44609 20.5539 2.34375 17.9688 2.34375H7.03125Z" fill="#BFB1A9"/>
<path d="M15.625 20.3125H9.375C6.78984 20.3125 4.6875 18.2102 4.6875 15.625V9.375C4.6875 6.78984 6.78984 4.6875 9.375 4.6875H15.625C18.2102 4.6875 20.3125 6.78984 20.3125 9.375V15.625C20.3125 18.2102 18.2102 20.3125 15.625 20.3125ZM9.375 6.25C7.65156 6.25 6.25 7.65156 6.25 9.375V15.625C6.25 17.3484 7.65156 18.75 9.375 18.75H15.625C17.3484 18.75 18.75 17.3484 18.75 15.625V9.375C18.75 7.65156 17.3484 6.25 15.625 6.25H9.375Z" fill="#BFB1A9"/>
<path d="M16.7969 9.17969C16.2586 9.17969 15.8203 8.74141 15.8203 8.20312C15.8203 7.66484 16.2586 7.22656 16.7969 7.22656C17.3352 7.22656 17.7734 7.66484 17.7734 8.20312C17.7734 8.74141 17.3352 9.17969 16.7969 9.17969Z" fill="#BFB1A9"/>
<path d="M12.5 16.4062C10.3461 16.4062 8.59375 14.6539 8.59375 12.5C8.59375 10.3461 10.3461 8.59375 12.5 8.59375C14.6539 8.59375 16.4062 10.3461 16.4062 12.5C16.4062 14.6539 14.6539 16.4062 12.5 16.4062ZM12.5 10.1562C11.2078 10.1562 10.1562 11.2078 10.1562 12.5C10.1562 13.7922 11.2078 14.8438 12.5 14.8438C13.7922 14.8438 14.8438 13.7922 14.8438 12.5C14.8438 11.2078 13.7922 10.1562 12.5 10.1562Z" fill="#BFB1A9"/>
</svg>
