<svg width="25" height="25" viewBox="0 0 25 25" fill="none" xmlns="http://www.w3.org/2000/svg">
<path d="M3.89297 6.93364H3.85938C2.07578 6.93364 0.78125 5.75083 0.78125 4.12114C0.78125 2.48911 2.10312 1.30396 3.92422 1.30396C5.71484 1.30396 6.99297 2.45708 7.03125 4.10786C7.03125 5.74927 5.71172 6.93364 3.89297 6.93364ZM3.92422 2.0852C2.53359 2.0852 1.5625 2.92271 1.5625 4.12114C1.5625 5.31724 2.50703 6.15317 3.85938 6.15317H3.89297C5.28125 6.15239 6.25 5.31567 6.25 4.11724C6.22109 2.88599 5.30859 2.0852 3.92422 2.0852Z" fill="#BFB1A9"/>
<path d="M5.85938 22.6562H1.95312C1.7375 22.6562 1.5625 22.4812 1.5625 22.2656V8.20312C1.5625 7.9875 1.7375 7.8125 1.95312 7.8125H5.85938C6.075 7.8125 6.25 7.9875 6.25 8.20312V22.2656C6.25 22.4812 6.075 22.6562 5.85938 22.6562ZM2.34375 21.875H5.46875V8.59375H2.34375V21.875Z" fill="#BFB1A9"/>
<path d="M23.8281 22.6562H19.1406C18.925 22.6562 18.75 22.4812 18.75 22.2656V14.8438C18.75 13.5516 17.6984 12.5 16.4062 12.5C15.1141 12.5 14.0625 13.5516 14.0625 14.8438V22.2656C14.0625 22.4812 13.8875 22.6562 13.6719 22.6562H8.98438C8.76875 22.6562 8.59375 22.4812 8.59375 22.2656V8.20312C8.59375 7.9875 8.76875 7.8125 8.98438 7.8125H13.6719C13.8875 7.8125 14.0625 7.9875 14.0625 8.20312V10.5578C14.0625 10.7734 13.8875 10.9484 13.6719 10.9484C13.4563 10.9484 13.2812 10.7734 13.2812 10.5578V8.59375H9.375V21.875H13.2812V14.8438C13.2812 13.1203 14.6828 11.7188 16.4062 11.7188C18.1297 11.7188 19.5312 13.1203 19.5312 14.8438V21.875H23.4375V13.6719C23.4375 10.8719 21.1594 8.59375 18.3594 8.59375C17.2781 8.59375 16.2328 8.91094 15.3352 9.51016C15.1562 9.62891 14.9133 9.58203 14.7938 9.40234C14.6742 9.22266 14.7219 8.98047 14.9023 8.86094C15.9281 8.175 17.1234 7.8125 18.3594 7.8125C21.5906 7.8125 24.2188 10.4406 24.2188 13.6719V22.2656C24.2188 22.4812 24.0437 22.6562 23.8281 22.6562Z" fill="#BFB1A9"/>
</svg>
