<svg width="50" height="50" viewBox="0 0 50 50" fill="none" xmlns="http://www.w3.org/2000/svg">
<path fill-rule="evenodd" clip-rule="evenodd" d="M11.6522 21.2596C11.0354 12.5313 33.0874 9.14306 35.9169 8.95253C45.0082 8.34151 42.1678 13.5925 42.0786 14.6204C41.7351 18.5615 30.3592 28.888 35.0717 27.5244C57.2308 21.1132 16.1429 46.4251 12.0731 42.8167C8.12729 39.3169 17.4561 24.5974 22.3659 25.3642L22.3754 25.3587C25.8587 23.8266 11.8754 24.4144 11.6522 21.2596Z" fill="#BFB1A9"/>
<path fill-rule="evenodd" clip-rule="evenodd" d="M19.7624 44.6586C20.6581 44.4771 25.064 44.3019 26.2689 44.2196C29.8758 43.9726 33.1361 44.8701 34.6241 45.1055C35.9908 45.3224 38.0787 46.0021 35.8477 46.4792C34.2809 46.8147 31.1285 47.4396 28.588 47.729C27.4933 47.8529 25.0373 47.8405 23.9072 47.6272C21.8169 47.2342 16.9479 46.0022 16.9479 46.0022C15.555 45.4968 17.3776 45.0702 19.7624 44.6586Z" fill="#24150F"/>
<path fill-rule="evenodd" clip-rule="evenodd" d="M14.9464 20.9937L18.5391 44.9842C21.8832 47.1996 28.704 47.7139 34.4292 45.4294L36.6761 21.2185C36.6761 21.2185 27.6211 15.5955 14.9464 20.9937Z" fill="#482A1F"/>
<path fill-rule="evenodd" clip-rule="evenodd" d="M14.6163 22.5377C14.6163 22.5377 14.3159 20.3722 14.4831 19.6776C14.6503 18.9822 16.43 18.7642 16.43 18.7642L17.978 14.1925C17.978 14.1925 28.6707 12.1322 34.0817 14.2206C34.9034 14.5375 35.8165 19.0305 35.8165 19.0305L37.3179 19.2633C37.3179 19.2633 37.0382 22.1343 36.9971 22.5774C36.9559 23.0212 26.9288 27.6521 14.6163 22.5377Z" fill="#ECECF0"/>
<path fill-rule="evenodd" clip-rule="evenodd" d="M16.0198 22.8171C16.0322 22.8171 23.0466 24.6864 28.5768 24.7239C30.2818 24.735 36.2875 23.4744 36.2875 23.4744C36.7277 23.417 36.0211 27.2936 35.737 27.3665C34.0401 27.8051 21.1084 26.0077 16.0446 24.4809C15.6231 24.3538 15.123 22.7928 16.0198 22.8171Z" fill="#24150F"/>
<path fill-rule="evenodd" clip-rule="evenodd" d="M22.8625 41.2586C22.4912 41.318 20.4912 41.3804 19.6325 41.1621C17.0194 40.4964 18.2709 40.819 18.2095 40.6718C18.0584 40.3083 16.8109 36.9429 17.3586 37.0112C19.8528 37.3229 20.9765 37.7527 23.0828 38.8979C23.1471 38.933 22.8216 38.5987 22.7446 38.5393C22.4473 38.3073 22.1685 38.0656 21.8645 37.8404C20.9717 37.1784 20.1598 36.4111 19.4941 35.5853C19.0594 35.0467 18.7855 34.3555 18.4658 33.7706C17.4941 31.9948 18.5009 28.0107 19.0516 28.424C20.7485 29.6979 21.919 30.5555 22.8186 32.3116C23.4181 33.4831 23.7231 34.5984 24.0321 35.8282C24.1442 36.2741 24.1354 36.7275 24.1666 37.1779C24.1685 37.2063 24.2709 37.7751 24.3245 37.6611C24.7017 36.8682 24.7241 35.9653 25.0818 35.1494C25.7075 33.7197 26.6442 32.2937 27.5535 30.9665C28.0594 30.2278 28.5623 29.5315 29.5204 29.1727C29.6578 29.1212 29.995 28.9448 30.152 28.9645C30.2387 28.9752 30.3079 29.3485 30.3138 29.3896C30.3888 29.8768 30.3381 30.3689 30.4414 30.8561C30.8449 32.7609 30.8147 34.7608 29.65 36.5522C29.1052 37.3917 26.65 39.3804 26.6685 39.4126C26.7572 39.5753 28.7007 38.9145 29.1559 38.7654C30.7465 38.2459 31.4746 38.0753 32.9872 38.1124C33.2065 38.1172 32.8235 40.436 32.1919 40.6718C30.3469 41.3629 30.7114 41.1397 28.7173 41.0159C28.1325 40.9788 27.4687 41.0383 27.8264 41.0461C29.0789 41.0744 30.1832 41.3911 31.304 41.8473C31.7212 42.0169 32.497 42.2839 32.3264 42.8063C32.2494 43.0451 31.4775 43.1942 31.2621 43.2625C30.0253 43.6572 28.3352 43.1757 27.2943 42.6348C27.0194 42.4915 26.8235 42.4135 26.6227 42.3063L28.4434 45.9701L27.1091 46.2566L26.1081 42.435C26.0048 43.128 25.8352 44.5529 25.3099 45.2693C24.9834 45.7157 24.3878 46.8414 23.9376 46.6923C23.0019 46.3814 23.1257 45.1942 23.1023 44.9282C23.0828 44.7108 23.1715 44.1348 23.306 43.7859C23.3225 43.743 23.46 43.1981 23.499 43.0744C23.5048 43.0636 23.5087 43.0568 23.5087 43.0529C23.5097 43.0432 23.5058 43.0519 23.499 43.0744C23.4064 43.2264 22.6988 44.0344 22.4366 44.3395C21.5652 45.3551 19.6783 46.1845 19.6851 46.1475C19.7709 45.666 18.1042 44.8707 18.307 44.4174C18.5409 43.897 19.1997 43.1689 19.6851 42.7839C20.7378 41.9476 22.5175 41.359 22.8625 41.2586C22.8859 41.2547 22.9025 41.2517 22.9122 41.2478C22.9346 41.2391 22.9151 41.243 22.8625 41.2586Z" fill="#B85621"/>
<path fill-rule="evenodd" clip-rule="evenodd" d="M18.6008 14.9246C18.6129 14.9273 24.1361 15.5831 25.0801 15.6769C26.9124 15.8602 28.2411 15.8018 29.6755 15.5477C30.8293 15.3433 31.9873 15.0999 33.0617 14.652C33.3058 14.5502 33.2919 14.7122 33.2056 14.7627C31.739 15.6079 29.3333 16.0788 28.0375 16.2434C24.6717 16.67 21.3643 15.669 18.5949 15.0946C18.448 15.068 18.4367 14.8954 18.6008 14.9246Z" fill="#24150F"/>
<path fill-rule="evenodd" clip-rule="evenodd" d="M33.7281 18.1667C32.365 19.6731 28.7483 20.452 22.7616 19.8183C20.8859 19.62 18.0157 19.0314 17.0728 18.842C17.026 18.8332 16.987 18.6774 17.1043 18.6845C19.9651 18.8633 22.8008 19.4164 25.6569 19.4979C27.7334 19.5572 29.8471 19.6262 31.8553 19.0155C32.5037 18.819 33.1373 18.5305 33.6293 18.0693C33.7424 17.9915 33.8564 18.0445 33.7281 18.1667Z" fill="#24150F"/>
<path fill-rule="evenodd" clip-rule="evenodd" d="M25.0464 3.01807C25.2679 2.86696 25.3339 3.10875 25.2222 3.18697C24.2748 3.9443 23.5409 5.15405 23.7699 6.10426C23.7699 6.10426 24.439 6.31581 24.9318 6.45536C25.882 6.72647 26.881 7.0038 27.6006 7.81179C28.4772 8.79667 28.1659 10.5904 27.9269 11.8527C27.7808 12.6251 27.5981 13.4251 27.074 14.0491C26.807 14.3673 26.3612 14.5744 25.9427 14.4073C25.7739 14.3397 25.8339 14.2055 25.9924 14.2064C26.4972 14.2073 26.8795 13.7904 27.0391 13.3362C27.3732 12.386 27.4083 11.3451 27.3827 10.3451C27.3602 9.46244 27.3962 8.55757 26.5475 7.97268C26.4875 7.93091 26.4264 7.89181 26.3643 7.85359C25.5132 7.32737 24.4927 7.13092 23.5914 6.70959C23.4213 6.62959 23.2693 6.55848 23.2178 6.33093C23.0285 5.45183 23.5282 4.54694 24.0741 3.90517C24.3594 3.56918 24.6809 3.26252 25.0464 3.01807Z" fill="#24150F"/>
<path fill-rule="evenodd" clip-rule="evenodd" d="M26.2668 5.20891C27.3505 5.37136 28.4397 5.83104 29.134 6.68768C29.733 7.42667 29.8278 8.44713 29.6182 9.44138C29.5882 9.58622 29.3122 10.8625 29.2707 11.0627L29.2668 11.0811C28.947 12.3513 28.893 13.7905 27.5652 14.2225C27.5652 14.2225 27.2915 14.3755 27.239 14.2512C27.2256 14.2195 27.2633 14.1557 27.2938 14.1191C28.84 12.2636 28.4826 11.4081 28.6932 10.0618C28.7998 9.37803 29.0945 8.7209 28.9477 7.9213C28.7407 6.78938 27.589 6.02487 26.5947 5.65621C26.2724 5.53757 25.9355 5.37916 25.6057 5.42242C25.3492 5.45669 25.3392 5.23076 25.4836 5.204C25.7158 5.11408 25.9999 5.1702 26.2668 5.20891Z" fill="#24150F"/>
<path fill-rule="evenodd" clip-rule="evenodd" d="M20.9467 14.4709C21.1783 14.4561 21.3227 14.4812 21.4573 14.5048C21.7089 14.5484 22.0509 14.8961 21.4984 15.0091C21.3764 15.0342 21.0641 15.0445 20.9294 15.0327C20.2959 14.9751 20.1965 14.7514 20.2477 14.6946C20.3211 14.6119 20.3926 14.5063 20.9467 14.4709Z" fill="#24150F"/>
<path fill-rule="evenodd" clip-rule="evenodd" d="M26.0916 8.20497C26.0971 8.20877 26.4394 8.45 26.628 9.57137C26.7403 10.2396 26.7802 10.9235 26.5204 11.5896C26.5068 11.6244 26.493 11.6581 26.4784 11.6919C26.3107 12.0839 26.0785 12.4007 25.8265 12.6699C25.3399 13.185 24.7659 13.5008 24.1982 13.7086C24.0782 13.7817 24.0541 13.6389 24.1601 13.5742C24.8503 13.1202 25.5212 12.5688 26.0037 11.6939C26.3149 11.1296 26.438 10.4297 26.3212 9.55875C26.2635 9.12785 26.2235 8.72509 26.1088 8.50165C26.0484 8.38468 25.9925 8.34924 25.8783 8.49139C25.8252 8.5574 25.6442 8.75863 25.6681 8.61916C25.737 8.37102 25.8898 8.09985 26.0916 8.20497Z" fill="#24150F"/>
<path fill-rule="evenodd" clip-rule="evenodd" d="M15.0164 23.1392C14.7377 23.0271 14.1568 23.1468 14.2133 22.3084C14.227 22.1148 14.266 19.8756 14.266 19.8297C14.2796 18.9647 14.6032 18.9024 15.0739 18.702C15.4463 18.544 15.9112 18.2638 16.0749 18.2346C16.0749 18.2346 17.2406 14.1982 17.8468 13.6899C18.265 13.3386 21.6987 12.6103 28.5037 12.6851C29.9647 12.7012 33.4794 13.2415 34.533 13.5896C35.0291 13.7534 36.0807 17.4402 36.1168 18.3755L37.3176 18.9625C37.6528 19.156 37.6031 19.1674 37.6333 19.4377C37.7737 20.7027 37.7181 21.6065 37.7415 22.7415C37.7493 23.0767 37.1207 23.1921 37.0339 23.2092C36.6168 25.8747 35.6343 39.5393 34.4296 45.4301C34.4296 45.4301 32.2659 46.5734 31.3692 46.7059C28.261 47.163 25.0837 47.8083 22.0291 47.0295C20.7231 46.6962 19.4794 46.1241 18.3439 45.3667C18.3439 45.3667 16.0164 30.3687 15.0164 23.1392ZM16.0447 23.2649L18.9316 44.7293C20.4053 45.6523 22.0681 46.2254 23.7883 46.3882C26.3351 46.6309 31.1431 45.6475 33.5505 44.7128L36.2259 23.4881C32.8439 24.5666 29.8575 25.1728 24.9433 24.8994C22.1597 24.7446 18.6441 24.1408 16.0447 23.2649ZM36.8604 19.6375C36.8926 21.0513 26.8692 22.1641 22.6802 21.5811C19.6997 21.1662 17.302 20.7689 15.0233 19.7419C14.8897 20.2347 14.9112 21.3996 14.9463 22.2065C14.9463 22.2065 22.1538 24.9911 30.4189 24.0993C32.456 23.8794 36.8166 22.6302 36.9969 22.577L36.8604 19.6375ZM36.8283 19.5781C36.5554 19.4366 35.5992 19.0085 35.5525 18.8391C35.5252 18.7405 34.416 14.5393 33.9521 14.3918C32.1597 13.8231 29.1948 13.6447 27.3147 13.6237C24.264 13.5896 18.5671 14.1792 18.3819 14.4666C17.4979 15.8349 16.6012 19.1456 16.4755 19.1607C16.3839 19.1717 15.5164 19.2125 15.1285 19.5304C15.1178 19.539 15.1081 19.5499 15.0983 19.5631C17.2045 20.2675 19.4229 20.8023 22.3195 21.1503C31.6704 22.2741 36.3702 19.5456 36.8565 19.5925L36.8283 19.5781Z" fill="#24150F"/>
</svg>
