<svg width="25" height="25" viewBox="0 0 25 25" fill="none" xmlns="http://www.w3.org/2000/svg">
<path d="M8.86174 21.857C8.66174 21.8031 8.51565 21.6359 8.48831 21.4312C8.36487 20.5859 8.21174 19.0312 8.52424 17.7101L9.64612 12.9554C9.69534 12.7453 9.90627 12.6148 10.1164 12.6648C10.3266 12.7148 10.4563 12.925 10.4063 13.1351L9.2844 17.8898C9.06721 18.8125 9.10315 19.8828 9.18127 20.6703C9.61799 20.0507 10.1789 19.1382 10.4242 18.2476C10.5391 17.8296 11.086 15.6656 11.086 15.6656C11.125 15.5085 11.2578 15.3921 11.4188 15.3726C11.5774 15.3523 11.7344 15.4359 11.811 15.5796C12.0586 16.0539 12.8586 16.5445 13.7664 16.5445C16.5305 16.5445 18.461 14.0492 18.461 10.4765C18.461 8.01479 16.375 5.4687 12.8852 5.4687C8.50862 5.4687 6.54065 8.68276 6.54065 10.9648C6.54065 12.2312 6.92424 13.2515 7.6219 13.8375C7.69846 13.9015 7.77971 13.8875 7.81096 13.8789C7.85002 13.8679 7.91956 13.8375 7.95002 13.7492L8.14377 13.196C8.16643 13.1296 8.12581 13.0562 8.10627 13.0281C7.76409 12.5164 7.5969 11.9179 7.5969 11.1992C7.5969 8.40308 9.7594 6.29526 12.6266 6.29526C15.2461 6.29526 16.9383 7.86636 16.9383 10.2976C16.9383 13.3765 15.486 15.6984 13.5602 15.6984C12.9438 15.6984 12.3828 15.4375 12.0227 14.982C11.6735 14.5406 11.5563 13.9796 11.693 13.4031C11.7977 12.9625 11.9375 12.5093 12.0727 12.0695C12.2992 11.3343 12.5133 10.6398 12.5133 10.1492C12.5133 9.84136 12.4282 9.12495 11.6328 9.12495C10.8328 9.12495 10.2063 10.025 10.2063 11.1734C10.2063 11.389 10.0313 11.564 9.81565 11.564C9.60002 11.564 9.42502 11.389 9.42502 11.1734C9.42502 9.58667 10.3946 8.3437 11.6328 8.3437C12.6266 8.3437 13.2946 9.06948 13.2946 10.1492C13.2946 10.7578 13.0633 11.507 12.8188 12.3C12.6883 12.7234 12.5531 13.1593 12.4524 13.5835C12.3719 13.9234 12.4367 14.2476 12.6344 14.4976C12.8461 14.7648 13.1828 14.9179 13.5594 14.9179C15.0157 14.9179 16.1563 12.889 16.1563 10.2984C16.1563 8.31167 14.8039 7.07729 12.6258 7.07729C9.86643 7.07729 8.37737 9.20151 8.37737 11.2C8.37737 11.7585 8.50081 12.2156 8.75471 12.5953C8.93284 12.8609 8.97737 13.1742 8.88049 13.4546L8.68674 14.0078C8.58049 14.3132 8.32971 14.5468 8.01721 14.6328C7.70159 14.7187 7.36643 14.6445 7.11877 14.4359C6.24221 13.6992 5.7594 12.4664 5.7594 10.9656C5.7594 7.87964 8.42502 4.68823 12.8852 4.68823C16.8641 4.68823 19.2422 7.63198 19.2422 10.4773C19.2422 14.446 16.9399 17.3265 13.7664 17.3265C12.9828 17.3265 12.2 17.039 11.6586 16.589C11.4875 17.2625 11.25 18.1953 11.1789 18.4554C10.8235 19.7437 9.93127 21.0085 9.43127 21.6476C9.31331 21.7976 9.15627 21.875 8.99612 21.875C8.95081 21.875 8.90549 21.8687 8.86174 21.857Z" fill="#947D70"/>
<path d="M12.2945 24.2188C5.83906 24.2188 0.78125 19.0711 0.78125 12.5C0.78125 9.66484 1.74766 6.94453 3.50391 4.84063C3.64297 4.67422 3.88906 4.65312 4.05391 4.79141C4.21953 4.92969 4.24219 5.17578 4.10391 5.34141C2.46484 7.30469 1.5625 9.84688 1.5625 12.5C1.5625 18.6336 6.27656 23.4375 12.2945 23.4375C18.4391 23.4375 23.4375 18.5312 23.4375 12.5C23.4375 6.46875 18.4391 1.5625 12.2945 1.5625C10.3883 1.5625 8.53437 2.04688 6.93672 2.9625C6.75078 3.06641 6.51094 3.00547 6.40391 2.81719C6.29687 2.62969 6.36172 2.39141 6.54922 2.28359C8.26484 1.30078 10.2516 0.78125 12.2945 0.78125C18.8695 0.78125 24.2188 6.03828 24.2188 12.5C24.2188 18.9617 18.8695 24.2188 12.2945 24.2188Z" fill="#947D70"/>
<path d="M5.89294 3.55627C5.89294 3.77112 5.71716 3.9469 5.50232 3.9469C5.28748 3.9469 5.11169 3.77112 5.11169 3.55627C5.11169 3.34143 5.28748 3.16565 5.50232 3.16565C5.71716 3.16565 5.89294 3.34065 5.89294 3.55627Z" fill="#947D70"/>
</svg>
